<svg width="170" height="170" viewBox="0 0 170 170" fill="none" xmlns="http://www.w3.org/2000/svg">
<path d="M157.273 46.1884L136.226 100.909H51.0442L32.8621 10H0V23.6362H21.6833L39.865 114.545H145.592L170 51.0839L157.273 46.1884Z" fill="black"/>
<path d="M63.6366 119.091C52.3578 119.091 43.1821 128.266 43.1821 139.545C43.1821 150.824 52.3581 160 63.6366 160C74.9154 160 84.091 150.824 84.091 139.545C84.091 128.266 74.915 119.091 63.6366 119.091ZM63.6366 146.364C59.877 146.364 56.8183 143.305 56.8183 139.545C56.8183 135.785 59.877 132.727 63.6366 132.727C67.3962 132.727 70.4548 135.785 70.4548 139.545C70.4548 143.305 67.3962 146.364 63.6366 146.364Z" fill="black"/>
<path d="M122.727 119.091C111.449 119.091 102.273 128.266 102.273 139.545C102.273 150.824 111.449 160 122.727 160C134.006 160 143.182 150.824 143.182 139.545C143.182 128.266 134.006 119.091 122.727 119.091ZM122.727 146.364C118.968 146.364 115.909 143.305 115.909 139.545C115.909 135.785 118.968 132.727 122.727 132.727C126.487 132.727 129.546 135.785 129.546 139.545C129.546 143.305 126.487 146.364 122.727 146.364Z" fill="black"/>
<path d="M124.88 34.6704C123.284 30.1296 121.075 26.2023 118.253 22.8887C115.43 19.575 112.074 16.9788 108.189 15.0955C104.302 13.2143 100.108 12.2729 95.6093 12.2729C91.0263 12.2729 86.8128 13.2143 82.9685 15.0955C79.1216 16.9788 75.789 19.575 72.9664 22.8887C70.1438 26.2023 67.9345 30.1296 66.3391 34.6704C64.7437 39.2113 63.9458 44.1818 63.9458 49.582C63.9458 54.9818 64.7437 59.9523 66.3391 64.4932C67.9345 69.034 70.1435 72.9613 72.9664 76.275C75.789 79.5883 79.122 82.1659 82.9685 84.0066C86.8131 85.8474 91.0263 86.7682 95.6093 86.7682C100.108 86.7682 104.302 85.8478 108.189 84.0066C112.074 82.1659 115.43 79.5883 118.253 76.275C121.075 72.9613 123.284 69.034 124.88 64.4932C126.475 59.9523 127.273 54.9818 127.273 49.5816C127.273 44.1818 126.475 39.2113 124.88 34.6704ZM109.6 58.5408C108.864 61.2409 107.82 63.5728 106.471 65.5364C105.121 67.5 103.525 69.0144 101.684 70.0773C99.8437 71.1414 97.8186 71.6727 95.6096 71.6727C93.318 71.6727 91.2527 71.1414 89.4119 70.0773C87.5711 69.0151 85.9757 67.5 84.6257 65.5364C83.2757 63.5728 82.2324 61.2409 81.4963 58.5408C80.7602 55.8408 80.3916 52.8548 80.3916 49.5816C80.3916 46.3101 80.7599 43.3036 81.4963 40.5613C82.2328 37.8214 83.276 35.4683 84.6257 33.5047C85.9757 31.5411 87.5711 30.0283 89.4119 28.9638C91.2527 27.9017 93.3183 27.3684 95.6096 27.3684C97.8186 27.3684 99.8437 27.9017 101.684 28.9638C103.525 30.0283 105.121 31.5411 106.471 33.5047C107.821 35.4683 108.864 37.8211 109.6 40.5613C110.337 43.3036 110.705 46.3105 110.705 49.5816C110.705 52.8551 110.337 55.8411 109.6 58.5408Z" fill="black"/>
</svg>
