<svg width="32" height="32" viewBox="0 0 32 32" fill="none" xmlns="http://www.w3.org/2000/svg">
<path d="M28.2528 9.00061V5.25342H0V22.9993H3.74725V26.7465H32V9.00061H28.2528ZM26.3792 7.12692V9.50523C25.8182 9.34761 25.3039 9.04898 24.8805 8.62567C24.4571 8.20229 24.1586 7.68792 24.0009 7.12692H26.3792ZM1.8735 7.12692H4.35362C4.196 7.68792 3.89737 8.20229 3.47406 8.62567C3.02356 9.07611 2.47356 9.38554 1.8735 9.53392V7.12692ZM1.8735 21.1258V18.719C2.4735 18.8674 3.02356 19.1765 3.474 19.627C3.89738 20.0504 4.196 20.5648 4.35362 21.1258H1.8735ZM1.8735 16.8107V11.443C2.97581 11.2711 3.99112 10.7581 4.79881 9.95036C5.57869 9.17048 6.08506 8.19073 6.27306 7.12686H22.0815C22.2696 8.19067 22.7759 9.17048 23.5557 9.95036C24.3356 10.7302 25.3154 11.2366 26.3792 11.4246V16.828C25.3154 17.0161 24.3356 17.5224 23.5557 18.3022C22.7759 19.0821 22.2696 20.0619 22.0815 21.1257H6.27313C6.085 20.062 5.57875 19.0821 4.79887 18.3021C3.99112 17.4945 2.97587 16.9828 1.8735 16.8107ZM26.3792 18.7474V21.1258H24.0009C24.1586 20.5648 24.4572 20.0504 24.8805 19.627C25.3039 19.2036 25.8182 18.905 26.3792 18.7474ZM30.1265 24.873H5.62075V22.9993H28.2528V10.8741H30.1265V24.873Z" fill="black"/>
<path d="M19.3352 13.0554C19.0492 11.664 18.2384 10.4674 17.0522 9.68573C15.8662 8.90417 14.4466 8.63117 13.0554 8.91736C11.664 9.20336 10.4674 10.0142 9.68573 11.2002C8.90417 12.3864 8.63123 13.8058 8.91729 15.1971C9.20329 16.5884 10.0141 17.7851 11.2002 18.5667C12.0793 19.146 13.0864 19.4458 14.1154 19.4458C14.4748 19.4458 14.837 19.4092 15.1971 19.3352C16.5884 19.0492 17.7851 18.2384 18.5667 17.0522C19.3483 15.8662 19.6212 14.4467 19.3352 13.0554ZM17.0023 16.0214C15.9573 17.6072 13.817 18.0473 12.231 17.0022C11.4629 16.496 10.9378 15.7209 10.7525 14.8198C10.5672 13.9187 10.7439 12.9993 11.2502 12.231C11.7564 11.4629 12.5316 10.9377 13.4327 10.7524C13.666 10.7045 13.9005 10.6808 14.1334 10.6808C14.7997 10.6808 15.4521 10.875 16.0215 11.2502C17.6072 12.2952 18.0473 14.4356 17.0023 16.0214Z" fill="black"/>
</svg>
