<svg width="32" height="32" viewBox="0 0 32 32" fill="none" xmlns="http://www.w3.org/2000/svg">
<g clip-path="url(#clip0)">
<path d="M4.4287 25.7685C1.86157 25.7685 0.321289 24.2282 0.321289 21.6611V14.3447H30.6777V21.6611C30.6777 24.2282 29.1374 25.7685 26.5702 25.7685H4.4287Z" fill="#CACACA"/>
<path d="M30.6777 9.72412H0.321289V14.9867H30.6777V9.72412Z" fill="white"/>
<path d="M0.321289 10.3657V9.33886C0.321289 6.77173 1.86157 5.23145 4.4287 5.23145H26.7628C29.2657 5.23145 30.7418 6.77173 30.7418 9.33886V10.3657H0.321289Z" fill="#CACACA"/>
<path d="M26.7624 4.91064H4.42831C2.31042 4.91064 0 6.06586 0 9.33895V21.6612C0 24.9343 2.31042 26.0895 4.42831 26.0895H26.5698C29.8429 26.0895 30.9981 23.7791 30.9981 21.6612V9.33895C31.0623 6.57928 29.4579 4.91064 26.7624 4.91064ZM29.7788 21.597C29.7788 22.7522 29.3937 24.7418 26.634 24.7418H4.42831C3.2731 24.7418 1.28357 24.3567 1.28357 21.597V15.3075H29.7146L29.7788 21.597ZM29.7788 14.024H1.28357V10.7509H29.7146L29.7788 14.024ZM29.7788 9.40313H1.28357V9.33895C1.28357 6.57928 3.2731 6.19421 4.42831 6.19421H26.7624C28.1101 6.19421 29.7788 6.77182 29.7788 9.33895V9.40313Z" fill="black"/>
<path d="M18.0344 21.0836H26.8268C27.2119 21.0836 27.4686 20.8269 27.4686 20.4418V17.2971C27.4686 16.912 27.2119 16.6553 26.8268 16.6553H18.0344C17.6493 16.6553 17.3926 16.912 17.3926 17.2971V20.4418C17.3926 20.7627 17.7135 21.0836 18.0344 21.0836ZM18.6761 17.9388H26.185V19.8H18.6761V17.9388Z" fill="black"/>
<path d="M3.78631 17.9388H11.937C12.322 17.9388 12.5788 17.6821 12.5788 17.2971C12.5788 16.912 12.322 16.6553 11.937 16.6553H3.78631C3.40124 16.6553 3.14453 16.912 3.14453 17.2971C3.14453 17.6821 3.46542 17.9388 3.78631 17.9388Z" fill="black"/>
<path d="M11.937 19.7998H7.44452C7.05945 19.7998 6.80273 20.0565 6.80273 20.4416C6.80273 20.8267 7.05945 21.0834 7.44452 21.0834H11.937C12.3221 21.0834 12.5788 20.8267 12.5788 20.4416C12.5788 20.0565 12.3221 19.7998 11.937 19.7998Z" fill="black"/>
</g>
<defs>
<clipPath id="clip0">
<rect width="32" height="32" fill="white"/>
</clipPath>
</defs>
</svg>
