<svg id="Layer_1" enable-background="new 0 0 506.622 506.622" height="512" viewBox="0 0 506.622 506.622" width="512" xmlns="http://www.w3.org/2000/svg"><path d="m442.499 84.224h-378.376c-35.357 0-64.123 28.766-64.123 64.123v209.928c0 35.357 28.766 64.123 64.123 64.123h378.376c35.357 0 64.123-28.766 64.123-64.123v-209.928c0-35.357-28.766-64.123-64.123-64.123zm-378.376 32h378.376c17.713 0 32.123 14.41 32.123 32.123v12.622h-442.622v-12.622c0-17.713 14.41-32.123 32.123-32.123zm410.499 116.302h-442.622v-39.557h442.622zm-32.123 157.872h-378.376c-17.713 0-32.123-14.41-32.123-32.123v-93.749h442.622v93.749c0 17.713-14.41 32.123-32.123 32.123z"/><circle cx="418.862" cy="333.42" r="16.88"/><circle cx="371.535" cy="333.42" r="16.88"/></svg>