<svg width="51" height="72" viewBox="0 0 51 72" fill="none" xmlns="http://www.w3.org/2000/svg">
<path d="M33.1264 1.5C36.7264 1.5 40.6264 0.5 42.1264 0C41.3264 4.4 35.7931 5.5 33.1264 5.5C31.9598 5.16667 28.6265 5.6 24.6265 10C20.6265 14.4 22.2931 26.1667 23.6265 31.5L25.6265 44.5C14.4265 41.7 10.9598 47.6667 10.6264 51V57C12.6264 61.4 14.4598 61.8333 15.1265 61.5C17.1265 60.7 17.2931 58.5 17.1265 57.5C17.9265 59.5 19.1265 59.6667 19.6265 59.5C23.2265 57.9 21.1265 54.1667 19.6265 52.5C22.1265 53 23.1265 55 24.1265 58.5C24.9265 61.3 27.1265 61.6667 28.1265 61.5C33.3265 59.5 33.2931 53 32.6265 50C29.8265 44.4 29.1265 31 29.1265 25C30.3265 27.8 33.9598 29.8333 35.6265 30.5C39.6265 31.7 39.2931 35.3333 38.6265 37C47.6265 35 44.1265 26.5 42.1264 24.8125C40.1264 23.125 32.6265 17 32.1265 14C31.7265 11.6 33.9598 9.33333 35.1265 8.5H38.1265C34.1265 12 37.1265 14 43.6265 18C48.8265 21.2 50.1265 25 50.1265 26.5V33.5C46.1265 40.3 43.4598 45.6667 42.6265 47.5V58C40.6265 66.8 31.5 71.5 27.1265 72H24.0015H20.8765H14.6265C5.42647 69.6 1.45978 61.3333 0.626431 57.5V50.5C-0.173569 47.3 -0.040236 44.5 0.126431 43.5C1.32643 36.7 4.2931 35.6667 5.62643 36C5.62643 38.4 7.2931 39 8.12643 39C12.1264 38.2 11.4598 28.6667 10.6264 24C9.02638 21.2 9.2931 20.5 9.62646 20.5L11.1265 22V15.5H11.6264V12C10.4264 12 10.4597 10.6667 10.6264 10H11.6264V9C11.2264 7 12.7931 6.5 13.6264 6.5V8H14.1264C18.9264 4.4 23.4597 2.5 25.1264 2C26.2931 1.83333 29.5264 1.5 33.1264 1.5Z" fill="white"/>
</svg>
