<svg width="163" height="72" viewBox="0 0 163 72" fill="none" xmlns="http://www.w3.org/2000/svg">
<path d="M19.26 15.22C18.94 15.58 18.78 15.98 18.78 16.42C18.78 16.58 18.82 16.84 18.9 17.2C18.98 17.52 19.02 17.76 19.02 17.92C19.02 18.52 18.68 19.04 18 19.48H17.88C17.92 19.24 17.94 19 17.94 18.76C17.94 18.52 17.9 18.2 17.82 17.8C17.74 17.4 17.7 17.1 17.7 16.9C17.7 16.34 18.18 15.78 19.14 15.22H19.26ZM24.84 26.74C24.84 27.82 24.66 28.86 24.3 29.86C23.82 31.18 23.16 31.84 22.32 31.84C21.92 31.84 21.76 32.72 21.84 34.48L21.66 34.66V35.14L21.54 35.32H21.18C21.14 35.44 21.1 35.54 21.06 35.62C20.62 35.7 20.08 35.74 19.44 35.74L19.32 35.44H18.54C18.5 35.32 18.38 35.22 18.18 35.14V34.66C18.1 34.54 17.94 34.4 17.7 34.24V33.76L17.4 33.64C17.32 33.48 17.16 33.32 16.92 33.16L16.8 32.86C15.92 32.94 15.22 32.98 14.7 32.98L14.4 32.86L14.1 32.56H13.8L13.62 32.26H12.96L12.84 32.32H12.54C12.5 32.44 12.38 32.54 12.18 32.62C12.14 32.7 12.1 32.82 12.06 32.98H11.7C11.62 33.1 11.52 33.22 11.4 33.34V33.94L11.28 34.24V35.68L11.4 35.86L11.34 37.84L11.64 38.14L11.94 38.26V38.56C12.14 38.64 12.4 38.84 12.72 39.16V39.34L13.08 39.46L13.2 39.58C13.52 39.7 14.26 40.2 15.42 41.08C16.42 41.84 17.06 42.22 17.34 42.22C17.38 42.38 17.52 42.54 17.76 42.7C18.04 42.98 18.46 43.44 19.02 44.08C19.1 44.4 19.46 45 20.1 45.88C20.22 45.92 20.34 46 20.46 46.12C20.62 46.2 20.76 46.36 20.88 46.6C20.92 46.64 21.3 47 22.02 47.68L22.2 48.1V50.8L22.02 51.16V51.46L21.54 51.94C21.46 52.38 21.38 52.7 21.3 52.9C21.26 53.1 21.22 53.42 21.18 53.86C21.14 54.3 21.12 54.62 21.12 54.82C21 54.9 20.88 55.06 20.76 55.3H20.46L20.16 55.96C19.76 56.16 19.56 56.4 19.56 56.68C19.56 56.8 19.58 56.94 19.62 57.1C19.7 57.26 19.74 57.38 19.74 57.46C19.74 57.66 19.48 57.76 18.96 57.76C18.68 57.76 18.08 57.86 17.16 58.06C16.24 58.26 15.68 58.42 15.48 58.54V58.66L15.18 58.72V59.02C14.7 59.02 13.98 59.06 13.02 59.14C12.1 59.22 11.4 59.26 10.92 59.26C10.48 59.26 9.84 58.98 9 58.42H8.7C8.42 58.18 8 57.74 7.44 57.1V56.8C6.88 56.72 6.4 56.22 6 55.3C5.6 54.38 4.96 53.84 4.08 53.68L3.78 53.38C3.66 53.02 3.6 52.02 3.6 50.38C3.44 50.26 3.26 50.04 3.06 49.72V48.16L3.24 47.74V47.08H3.6L3.78 46.72C3.9 46.72 4.12 46.72 4.44 46.72C4.72 46.68 4.92 46.66 5.04 46.66L5.22 46.84L5.52 46.78C5.6 46.94 5.76 47.1 6 47.26V49.12C6.24 49.32 6.4 49.52 6.48 49.72V50.08L6.54 50.2L6.78 50.38V50.68L6.96 50.98L7.26 51.1L7.44 51.28C7.56 51.68 7.82 51.98 8.22 52.18L8.34 52.36L8.7 52.48C8.7 52.56 8.86 52.76 9.18 53.08L9.48 53.2C9.84 53.2 10.36 53.18 11.04 53.14C11.72 53.1 12.24 53.08 12.6 53.08L12.78 52.72C13.02 52.6 13.6 51.94 14.52 50.74V49.18C14.44 48.94 14.28 48.74 14.04 48.58H13.92C13.76 48.58 13.58 48.54 13.38 48.46V48.1C13.26 48.06 13.14 47.98 13.02 47.86C12.94 47.7 12.86 47.48 12.78 47.2L12.6 46.9V46.24C12.56 46.28 12.5 46.3 12.42 46.3C12.34 46.3 12.3 46.18 12.3 45.94L12 46C11.92 45.84 11.78 45.7 11.58 45.58C11.38 45.46 11.14 45.36 10.86 45.28L10.74 45.1L9.9 44.86C9.86 44.74 9.76 44.64 9.6 44.56L9.42 44.2V43.9L9.3 43.84L9.12 43.6H8.82L8.64 43.3L8.34 43.36L8.04 43.18V42.88H7.68L7.56 42.58C7.04 42.62 6.72 42.64 6.6 42.64C6.48 42.52 6.26 42.22 5.94 41.74V41.26C5.7 40.9 5.5 40.76 5.34 40.84L5.16 40.48L4.68 40.54C4.64 40.42 4.54 40.32 4.38 40.24C4.22 39.92 4.16 39.66 4.2 39.46C4.08 39.1 3.88 38.8 3.6 38.56C3.56 38.4 3.5 38.18 3.42 37.9C3.3 37.86 3.2 37.76 3.12 37.6C2.96 37.56 2.8 37.42 2.64 37.18C2.36 37.18 2.22 36.98 2.22 36.58V32.14L2.34 31.96V31.48L2.52 31.42L2.64 31.3V31L2.82 30.88H2.76C2.72 30.28 2.7 29.74 2.7 29.26C2.7 27.38 3.02 25.88 3.66 24.76C4.34 23.6 5.48 22.46 7.08 21.34C6.24 22.26 5.82 23.08 5.82 23.8C5.82 24.6 6.22 25 7.02 25C7.78 25 8.54 24.42 9.3 23.26C10.06 22.06 10.82 20.84 11.58 19.6C12.78 18.08 14.16 16.96 15.72 16.24C14 17.8 13.14 19.24 13.14 20.56C13.14 21.28 13.46 21.88 14.1 22.36C14.74 22.8 15.44 23.02 16.2 23.02C17.72 23.02 18.46 22.28 18.42 20.8C19.1 21 19.52 21.84 19.68 23.32C19.84 24.64 20.5 25.3 21.66 25.3C22.74 25.3 23.28 24.76 23.28 23.68C23.28 23.44 23.26 23.18 23.22 22.9C24.3 23.78 24.84 25.06 24.84 26.74Z" fill="white"/>
<path d="M147.26 16.3C146.98 16.66 146.84 17.06 146.84 17.5C146.84 17.66 146.86 17.92 146.9 18.28C146.98 18.6 147.02 18.84 147.02 19C147.02 19.6 146.68 20.12 146 20.56H145.94C145.98 20.32 146 20.08 146 19.84C146 19.6 145.96 19.28 145.88 18.88C145.8 18.48 145.76 18.18 145.76 17.98C145.76 17.42 146.24 16.86 147.2 16.3H147.26ZM162.2 26.86C162.2 28.18 161.92 29.3 161.36 30.22C161.44 30.26 161.48 30.38 161.48 30.58C161.48 30.86 161.4 31.24 161.24 31.72C161.08 32.2 161 32.56 161 32.8L160.82 32.92H160.46C160.34 33 160.16 33.06 159.92 33.1L159.68 33.52L159.2 33.1C158.76 33.1 158.48 33.02 158.36 32.86C158.28 32.66 158.16 32.58 158 32.62L157.7 32.26V32.14L157.52 32.44L157.28 32.32L157.04 31.96L156.74 31.78C156.62 31.78 156.46 31.8 156.26 31.84C156.06 31.88 155.9 31.9 155.78 31.9H155.66C155.38 31.94 155.14 31.86 154.94 31.66C154.62 31.74 154.12 31.84 153.44 31.96C153.52 32.04 153.56 32.18 153.56 32.38C153.56 32.78 153.4 33.3 153.08 33.94C152.64 34.82 152.4 35.34 152.36 35.5C152.2 35.94 151.98 37.28 151.7 39.52C151.42 41.76 151.28 43.18 151.28 43.78C151.28 43.94 151.34 44.18 151.46 44.5C151.58 44.82 151.64 45.06 151.64 45.22C151.64 45.7 151.4 46.46 150.92 47.5C150.48 48.54 150.26 49.28 150.26 49.72C150.26 49.84 150.28 50 150.32 50.2C150.36 50.36 150.38 50.48 150.38 50.56C150.34 50.68 150.22 50.84 150.02 51.04C149.66 51.44 149.4 52.4 149.24 53.92C149.28 54.12 149.42 54.5 149.66 55.06C149.7 55.14 149.72 55.22 149.72 55.3C149.72 56.1 149.4 56.72 148.76 57.16C148.16 57.6 147.46 57.82 146.66 57.82C145.74 57.82 145.24 57.54 145.16 56.98L144.86 56.56C144.98 56.16 145.12 55.54 145.28 54.7C145.2 54.46 145.16 54.22 145.16 53.98C145.16 53.74 145.24 53.38 145.4 52.9C145.56 52.42 145.64 52.04 145.64 51.76C145.64 51.48 145.58 51.04 145.46 50.44C145.38 49.84 145.34 49.4 145.34 49.12C145.34 48.56 145.44 48.1 145.64 47.74C146.16 46.66 146.42 45.24 146.42 43.48C146.42 43.28 146.38 42.82 146.3 42.1C146.14 41.9 146.06 41.6 146.06 41.2C146.06 40.88 146.14 40.42 146.3 39.82C146.46 39.18 146.54 38.7 146.54 38.38C146.54 38.18 146.46 37.88 146.3 37.48C146.18 37.04 146.12 36.7 146.12 36.46C146.12 36.14 146.22 35.66 146.42 35.02C146.62 34.38 146.72 33.9 146.72 33.58V33.64C146.48 33.8 146.16 34.08 145.76 34.48C145.52 34.52 145.32 34.56 145.16 34.6C145.04 34.64 144.66 34.7 144.02 34.78H143.84C143.68 34.86 143.42 34.98 143.06 35.14C142.7 35.3 142.36 35.38 142.04 35.38C141.4 35.38 140.54 35.02 139.46 34.3L138.98 34.12C138.58 33.72 138.02 33.04 137.3 32.08L137.36 31.96L137 32.02L136.76 31.9C136.76 31.5 136.94 31.18 137.3 30.94V30.7C137.66 30.46 137.88 30.24 137.96 30.04C138.56 30 139.18 29.9 139.82 29.74L140 29.56V29.08C139.96 27.24 140.28 25.74 140.96 24.58C141.64 23.42 142.78 22.28 144.38 21.16C143.58 22.04 143.18 22.84 143.18 23.56C143.18 24.4 143.56 24.82 144.32 24.82C145.08 24.82 146.22 23.64 147.74 21.28C149.46 18.64 151.24 16.9 153.08 16.06C151.36 17.62 150.5 19.04 150.5 20.32C150.5 21.04 150.78 21.64 151.34 22.12C151.94 22.6 152.64 22.84 153.44 22.84C155 22.84 155.78 22.1 155.78 20.62C156.42 20.82 156.82 21.66 156.98 23.14C157.14 24.46 157.8 25.12 158.96 25.12C160.08 25.12 160.64 24.58 160.64 23.5C160.64 23.26 160.62 23 160.58 22.72C161.66 23.64 162.2 25.02 162.2 26.86Z" fill="white"/>
<path d="M89.1264 1.5C92.7264 1.5 96.6264 0.5 98.1264 0C97.3264 4.4 91.7931 5.5 89.1264 5.5C87.9598 5.16667 84.6265 5.6 80.6265 10C76.6265 14.4 78.2931 26.1667 79.6265 31.5L81.6265 44.5C70.4265 41.7 66.9598 47.6667 66.6264 51V57C68.6264 61.4 70.4598 61.8333 71.1265 61.5C73.1265 60.7 73.2931 58.5 73.1265 57.5C73.9265 59.5 75.1265 59.6667 75.6265 59.5C79.2265 57.9 77.1265 54.1667 75.6265 52.5C78.1265 53 79.1265 55 80.1265 58.5C80.9265 61.3 83.1265 61.6667 84.1265 61.5C89.3265 59.5 89.2931 53 88.6265 50C85.8265 44.4 85.1265 31 85.1265 25C86.3265 27.8 89.9598 29.8333 91.6265 30.5C95.6265 31.7 95.2931 35.3333 94.6265 37C103.626 35 100.126 26.5 98.1264 24.8125C96.1264 23.125 88.6265 17 88.1265 14C87.7265 11.6 89.9598 9.33333 91.1265 8.5H94.1265C90.1265 12 93.1265 14 99.6265 18C104.826 21.2 106.126 25 106.126 26.5V33.5C102.126 40.3 99.4598 45.6667 98.6265 47.5V58C96.6265 66.8 87.4598 71 83.1265 72H70.6265C61.4265 69.6 57.4598 61.3333 56.6264 57.5V50.5C55.8264 47.3 55.9598 44.5 56.1264 43.5C57.3264 36.7 60.2931 35.6667 61.6264 36C61.6264 38.4 63.2931 39 64.1264 39C68.1264 38.2 67.4598 28.6667 66.6264 24C65.0264 21.2 65.2931 20.5 65.6265 20.5L67.1265 22V15.5H67.6264V12C66.4264 12 66.4597 10.6667 66.6264 10H67.6264V9C67.2264 7 68.7931 6.5 69.6264 6.5V8H70.1264C74.9264 4.4 79.4597 2.5 81.1264 2C82.2931 1.83333 85.5264 1.5 89.1264 1.5Z" fill="white"/>
</svg>
